<svg xmlns="http://www.w3.org/2000/svg"  viewBox="0 0 64 64" width="64px" height="64px"><linearGradient id="Xyjr68vt5Saf1yWS6wFXma" x1="36.688" x2="36.688" y1="8.125" y2="56.125" gradientUnits="userSpaceOnUse" spreadMethod="reflect"><stop offset="0" stop-color="#1a6dff"/><stop offset="1" stop-color="#c822ff"/></linearGradient><path fill="url(#Xyjr68vt5Saf1yWS6wFXma)" d="M18.374,56c-0.522,0-0.962-0.406-0.997-0.935c-0.036-0.551,0.382-1.027,0.933-1.063 l33.5-2.192l2.192-33.573c0.036-0.551,0.495-0.967,1.063-0.933c0.551,0.036,0.969,0.512,0.933,1.063l-2.25,34.449 c-0.033,0.501-0.432,0.9-0.933,0.933l-34.375,2.25C18.418,56,18.396,56,18.374,56z"/><linearGradient id="Xyjr68vt5Saf1yWS6wFXmb" x1="47.375" x2="47.375" y1="8.125" y2="56.125" gradientUnits="userSpaceOnUse" spreadMethod="reflect"><stop offset="0" stop-color="#1a6dff"/><stop offset="1" stop-color="#c822ff"/></linearGradient><path fill="url(#Xyjr68vt5Saf1yWS6wFXmb)" d="M52.75,53.75c-0.24,0-0.48-0.085-0.672-0.259l-10.75-9.75 c-0.409-0.371-0.439-1.003-0.068-1.413c0.371-0.41,1.004-0.44,1.412-0.069l10.75,9.75c0.409,0.371,0.439,1.003,0.068,1.413 C53.293,53.64,53.022,53.75,52.75,53.75z"/><linearGradient id="Xyjr68vt5Saf1yWS6wFXmc" x1="15.308" x2="15.308" y1="8.125" y2="56.125" gradientUnits="userSpaceOnUse" spreadMethod="reflect"><stop offset="0" stop-color="#1a6dff"/><stop offset="1" stop-color="#c822ff"/></linearGradient><path fill="url(#Xyjr68vt5Saf1yWS6wFXmc)" d="M18.519,55.96c-0.388,0-0.758-0.228-0.92-0.608l-6.422-15.049 c-0.217-0.508,0.02-1.096,0.527-1.313c0.502-0.217,1.095,0.018,1.313,0.527l6.422,15.049c0.217,0.508-0.02,1.096-0.527,1.313 C18.783,55.935,18.65,55.96,18.519,55.96z"/><linearGradient id="Xyjr68vt5Saf1yWS6wFXmd" x1="41.24" x2="41.24" y1="8.125" y2="56.125" gradientUnits="userSpaceOnUse" spreadMethod="reflect"><stop offset="0" stop-color="#1a6dff"/><stop offset="1" stop-color="#c822ff"/></linearGradient><path fill="url(#Xyjr68vt5Saf1yWS6wFXmd)" d="M47.629,10.154c-0.004,0-0.008,0-0.012,0L34.84,10c-0.553-0.007-0.995-0.46-0.988-1.012 C33.858,8.436,34.263,8.004,34.863,8l12.777,0.154c0.553,0.007,0.995,0.46,0.988,1.012C48.622,9.714,48.176,10.154,47.629,10.154z"/><linearGradient id="Xyjr68vt5Saf1yWS6wFXme" x1="9" x2="9" y1="8.125" y2="56.125" gradientUnits="userSpaceOnUse" spreadMethod="reflect"><stop offset="0" stop-color="#1a6dff"/><stop offset="1" stop-color="#c822ff"/></linearGradient><path fill="url(#Xyjr68vt5Saf1yWS6wFXme)" d="M9,46.806c-0.553,0-1-0.448-1-1V32.448c0-0.552,0.447-1,1-1s1,0.448,1,1v13.358 C10,46.358,9.553,46.806,9,46.806z"/><linearGradient id="Xyjr68vt5Saf1yWS6wFXmf" x1="24.852" x2="24.852" y1="8.125" y2="56.125" gradientUnits="userSpaceOnUse" spreadMethod="reflect"><stop offset="0" stop-color="#1a6dff"/><stop offset="1" stop-color="#c822ff"/></linearGradient><path fill="url(#Xyjr68vt5Saf1yWS6wFXmf)" d="M12.121,40.966c-0.397,0-0.766-0.237-0.924-0.617l-3.121-7.519 c-0.119-0.288-0.098-0.616,0.06-0.886l6.322-10.885c0.049-0.084,0.11-0.162,0.182-0.228l9.49-8.868 c0.098-0.091,0.212-0.162,0.337-0.208l10.039-3.694c0.31-0.113,0.651-0.069,0.92,0.12l5.853,4.106 c0.356,0.25,0.511,0.702,0.38,1.118l-3.737,11.906c-0.052,0.166-0.146,0.314-0.272,0.432L24.403,38.087 c-0.13,0.121-0.289,0.205-0.462,0.244l-11.601,2.61C12.268,40.958,12.193,40.966,12.121,40.966z M10.113,32.522l2.609,6.284 l10.516-2.366l12.854-11.979l3.439-10.957l-4.825-3.386l-9.358,3.444l-9.234,8.629L10.113,32.522z"/><linearGradient id="Xyjr68vt5Saf1yWS6wFXmg" x1="36.238" x2="36.238" y1="8.125" y2="56.125" gradientUnits="userSpaceOnUse" spreadMethod="reflect"><stop offset="0" stop-color="#1a6dff"/><stop offset="1" stop-color="#c822ff"/></linearGradient><path fill="url(#Xyjr68vt5Saf1yWS6wFXmg)" d="M18.519,55.953c-0.298,0-0.583-0.133-0.773-0.367c-0.211-0.257-0.28-0.603-0.185-0.921 l5.308-17.628c0.077-0.256,0.254-0.47,0.489-0.595c0.235-0.124,0.512-0.15,0.767-0.071l16.419,5.127l-4.515-16.19 c-0.081-0.29-0.027-0.601,0.146-0.846s0.449-0.4,0.749-0.42l16.967-1.139c0.328-0.027,0.648,0.119,0.854,0.379 c0.204,0.259,0.267,0.603,0.168,0.918c-2.255,7.193-6.247,13.574-12.205,19.507c-0.001,0.001-0.002,0.002-0.003,0.003 c-7.34,7.307-15.445,11.424-24.092,12.238C18.581,55.951,18.55,55.953,18.519,55.953z M24.492,38.581l-4.576,15.201 c7.156-1.018,13.931-4.485,20.177-10.329L24.492,38.581z M38.284,25.955l4.213,15.104c4.689-4.955,7.991-10.234,10.042-16.061 L38.284,25.955z"/><linearGradient id="Xyjr68vt5Saf1yWS6wFXmh" x1="47.791" x2="47.791" y1="8.125" y2="56.125" gradientUnits="userSpaceOnUse" spreadMethod="reflect"><stop offset="0" stop-color="#1a6dff"/><stop offset="1" stop-color="#c822ff"/></linearGradient><path fill="url(#Xyjr68vt5Saf1yWS6wFXmh)" d="M53.91,24.992c-0.229,0-0.453-0.078-0.634-0.227L39.96,13.843 c-0.256-0.21-0.392-0.533-0.362-0.863s0.221-0.624,0.51-0.785l7.035-3.916c0.199-0.111,0.432-0.149,0.654-0.112 c3.171,0.542,5.466,1.959,6.82,4.213c2.349,3.908,1.16,9.148,0.242,11.924c-0.104,0.313-0.354,0.555-0.671,0.646 C54.097,24.979,54.003,24.992,53.91,24.992z M42.364,13.229l11.012,9.031c0.611-2.38,1.154-6.141-0.474-8.849 c-0.994-1.654-2.709-2.733-5.102-3.208L42.364,13.229z"/><linearGradient id="Xyjr68vt5Saf1yWS6wFXmi" x1="13.765" x2="13.765" y1="8.125" y2="56.125" gradientUnits="userSpaceOnUse" spreadMethod="reflect"><stop offset="0" stop-color="#1a6dff"/><stop offset="1" stop-color="#c822ff"/></linearGradient><path fill="url(#Xyjr68vt5Saf1yWS6wFXmi)" d="M18.53,55.986c-0.01,0-0.02,0-0.028,0C15.67,55.905,8.276,55.693,8,45.755 c-0.005-0.177,0.037-0.352,0.122-0.506l3.127-5.736c0.184-0.336,0.528-0.527,0.926-0.521c0.383,0.019,0.722,0.254,0.872,0.606 l6.403,14.996c0.134,0.313,0.099,0.674-0.094,0.956C19.17,55.823,18.86,55.986,18.53,55.986z M10.009,45.965 c0.281,6.543,4.071,7.695,6.975,7.945l-4.966-11.629L10.009,45.965z"/><linearGradient id="Xyjr68vt5Saf1yWS6wFXmj" x1="43.592" x2="43.592" y1="18.286" y2="21.755" gradientUnits="userSpaceOnUse" spreadMethod="reflect"><stop offset="0" stop-color="#6dc7ff"/><stop offset="1" stop-color="#e6abff"/></linearGradient><path fill="url(#Xyjr68vt5Saf1yWS6wFXmj)" d="M41.134 21.754L42.223 18.286 46.05 21.425 41.134 21.754z"/><linearGradient id="Xyjr68vt5Saf1yWS6wFXmk" x1="33.612" x2="33.612" y1="30.558" y2="38.492" gradientUnits="userSpaceOnUse" spreadMethod="reflect"><stop offset="0" stop-color="#6dc7ff"/><stop offset="1" stop-color="#e6abff"/></linearGradient><path fill="url(#Xyjr68vt5Saf1yWS6wFXmk)" d="M29.595 35.983L35.416 30.558 37.629 38.492 29.595 35.983z"/><linearGradient id="Xyjr68vt5Saf1yWS6wFXml" x1="17.882" x2="17.882" y1="41.388" y2="46.17" gradientUnits="userSpaceOnUse" spreadMethod="reflect"><stop offset="0" stop-color="#6dc7ff"/><stop offset="1" stop-color="#e6abff"/></linearGradient><path fill="url(#Xyjr68vt5Saf1yWS6wFXml)" d="M16.294 42.102L19.469 41.388 18.029 46.17 16.294 42.102z"/></svg>