<svg xmlns="http://www.w3.org/2000/svg"  viewBox="0 0 64 64" width="64px" height="64px"><linearGradient id="d2LE0FWkxuESDPuq5UbsEa" x1="15" x2="15" y1="35.125" y2="57.381" gradientUnits="userSpaceOnUse" spreadMethod="reflect"><stop offset="0" stop-color="#1a6dff"/><stop offset="1" stop-color="#c822ff"/></linearGradient><path fill="url(#d2LE0FWkxuESDPuq5UbsEa)" d="M22.342,40.171l-6-2.999c-0.84-0.422-1.844-0.421-2.684-0.001l-6.001,3 C6.635,40.683,6,41.711,6,42.854v7.526c0,1.145,0.636,2.174,1.66,2.687l5.104,2.553c0.7,0.35,1.468,0.524,2.235,0.524 c0.767,0,1.534-0.175,2.234-0.524l5.105-2.553C23.364,52.554,24,51.524,24,50.38v-7.526C24,41.71,23.364,40.683,22.342,40.171z M14.554,38.959c0.14-0.069,0.292-0.104,0.445-0.104s0.307,0.035,0.447,0.105l5.317,2.658l-5.32,2.66c-0.277,0.14-0.61,0.141-0.89,0 l-5.318-2.659L14.554,38.959z M8.555,51.277C8.213,51.106,8,50.763,8,50.38v-7.143l5.659,2.83c0.109,0.055,0.227,0.083,0.341,0.123 v7.763c-0.114-0.04-0.231-0.068-0.341-0.123L8.555,51.277z M21.445,51.277L16.34,53.83c-0.109,0.054-0.226,0.082-0.34,0.122v-7.764 c0.113-0.04,0.23-0.068,0.339-0.122L22,43.236v7.144C22,50.763,21.787,51.106,21.445,51.277z"/><linearGradient id="d2LE0FWkxuESDPuq5UbsEb" x1="49" x2="49" y1="35.125" y2="57.381" gradientUnits="userSpaceOnUse" spreadMethod="reflect"><stop offset="0" stop-color="#1a6dff"/><stop offset="1" stop-color="#c822ff"/></linearGradient><path fill="url(#d2LE0FWkxuESDPuq5UbsEb)" d="M56.342,40.171l-6-2.999c-0.84-0.422-1.844-0.421-2.684-0.001l-6.001,3 C40.635,40.683,40,41.711,40,42.854v7.526c0,1.145,0.636,2.174,1.66,2.687l5.104,2.553c0.7,0.35,1.468,0.524,2.235,0.524 c0.767,0,1.534-0.175,2.234-0.524l5.105-2.553C57.364,52.554,58,51.524,58,50.38v-7.526C58,41.71,57.364,40.683,56.342,40.171z M48.554,38.959c0.14-0.069,0.292-0.104,0.445-0.104s0.307,0.035,0.447,0.105l5.317,2.658l-5.32,2.66c-0.277,0.14-0.61,0.141-0.89,0 l-5.318-2.659L48.554,38.959z M42.555,51.277C42.213,51.106,42,50.763,42,50.38v-7.143l5.659,2.83 c0.109,0.055,0.227,0.083,0.341,0.123v7.763c-0.114-0.04-0.231-0.068-0.341-0.123L42.555,51.277z M55.445,51.277L50.34,53.83 c-0.109,0.054-0.226,0.082-0.34,0.122v-7.764c0.113-0.04,0.23-0.068,0.339-0.122L56,43.236v7.144 C56,50.763,55.787,51.106,55.445,51.277z"/><linearGradient id="d2LE0FWkxuESDPuq5UbsEc" x1="32" x2="32" y1="7" y2="27.881" gradientUnits="userSpaceOnUse" spreadMethod="reflect"><stop offset="0" stop-color="#1a6dff"/><stop offset="1" stop-color="#c822ff"/></linearGradient><path fill="url(#d2LE0FWkxuESDPuq5UbsEc)" d="M41,21.38v-7.526c0-1.144-0.636-2.171-1.658-2.683l-6-2.999 c-0.84-0.422-1.844-0.421-2.684-0.001l-6.001,3C23.635,11.683,23,12.711,23,13.854v7.526c0,1.145,0.636,2.174,1.66,2.687 l5.104,2.553c0.7,0.35,1.468,0.524,2.235,0.524c0.767,0,1.534-0.175,2.234-0.524l5.105-2.553C40.364,23.554,41,22.524,41,21.38z M31.554,9.959c0.14-0.069,0.292-0.104,0.445-0.104s0.307,0.035,0.447,0.105l5.317,2.658l-5.318,2.659 c-0.279,0.139-0.612,0.139-0.892,0l-5.318-2.659L31.554,9.959z M25.555,22.277C25.213,22.106,25,21.763,25,21.38v-7.143l5.66,2.831 c0.109,0.054,0.226,0.082,0.34,0.122v7.764c-0.114-0.04-0.231-0.068-0.341-0.123L25.555,22.277z M38.445,22.277L33.34,24.83 c-0.109,0.054-0.226,0.082-0.34,0.123v-7.765c0.113-0.04,0.23-0.067,0.339-0.122L39,14.236v7.144 C39,21.763,38.787,22.106,38.445,22.277z"/><linearGradient id="d2LE0FWkxuESDPuq5UbsEd" x1="32.047" x2="32.047" y1="50.188" y2="54.087" gradientUnits="userSpaceOnUse" spreadMethod="reflect"><stop offset="0" stop-color="#6dc7ff"/><stop offset="1" stop-color="#e6abff"/></linearGradient><path fill="url(#d2LE0FWkxuESDPuq5UbsEd)" d="M26.236,51.048l-0.475,1.943c1.708,0.416,3.47,0.627,5.237,0.627 c2.517,0,4.983-0.422,7.333-1.253l-0.666-1.885C34.029,51.766,29.996,51.966,26.236,51.048z"/><linearGradient id="d2LE0FWkxuESDPuq5UbsEe" x1="49.852" x2="49.852" y1="17.25" y2="35.881" gradientUnits="userSpaceOnUse" spreadMethod="reflect"><stop offset="0" stop-color="#6dc7ff"/><stop offset="1" stop-color="#e6abff"/></linearGradient><path fill="url(#d2LE0FWkxuESDPuq5UbsEe)" d="M48.276,18.281l-1.57,1.145C49.515,22.983,50.999,27,50.999,32c0,1-0.122,2.467-0.362,3.716 l1.965,0.282C52.865,34.625,52.999,33,52.999,32C52.999,27,51.366,22.195,48.276,18.281z"/><linearGradient id="d2LE0FWkxuESDPuq5UbsEf" x1="12.145" x2="12.145" y1="17.25" y2="35.881" gradientUnits="userSpaceOnUse" spreadMethod="reflect"><stop offset="0" stop-color="#6dc7ff"/><stop offset="1" stop-color="#e6abff"/></linearGradient><path fill="url(#d2LE0FWkxuESDPuq5UbsEf)" d="M13.721,18.19C10.632,22.103,8.999,27,8.999,32c0,1,0.134,2.626,0.399,3.998l1.963-0.284 C11.121,34.467,10.999,33,10.999,32c0-5,1.484-8.919,4.292-12.477L13.721,18.19z"/></svg>